<svg width="32" height="32" viewBox="0 0 32 32" fill="none" xmlns="http://www.w3.org/2000/svg">
<g clip-path="url(#clip0_188_43)">
<rect x="3" y="3" width="29" height="29" fill="black"/>
<rect x="1" y="1" width="27" height="27" fill="#FFFD4C" stroke="black" stroke-width="2"/>
<path d="M7.196 16.728C7.5 16.728 7.748 16.684 7.94 16.596C8.14 16.5 8.292 16.376 8.396 16.224C8.508 16.064 8.584 15.884 8.624 15.684C8.664 15.476 8.684 15.264 8.684 15.048V14.832H10.268V15.048C10.268 16.048 10.004 16.82 9.476 17.364C8.956 17.9 8.196 18.168 7.196 18.168C6.236 18.168 5.476 17.876 4.916 17.292C4.356 16.708 4.076 15.856 4.076 14.736V12.864C4.076 12.328 4.148 11.848 4.292 11.424C4.436 10.992 4.644 10.632 4.916 10.344C5.188 10.048 5.516 9.824 5.9 9.672C6.284 9.512 6.716 9.432 7.196 9.432C7.692 9.432 8.132 9.504 8.516 9.648C8.9 9.792 9.22 10 9.476 10.272C9.74 10.544 9.936 10.872 10.064 11.256C10.2 11.64 10.268 12.072 10.268 12.552V12.768H8.684V12.552C8.684 12.352 8.66 12.152 8.612 11.952C8.564 11.752 8.484 11.572 8.372 11.412C8.26 11.252 8.108 11.124 7.916 11.028C7.724 10.924 7.484 10.872 7.196 10.872C6.932 10.872 6.704 10.924 6.512 11.028C6.32 11.124 6.16 11.26 6.032 11.436C5.904 11.604 5.808 11.804 5.744 12.036C5.688 12.26 5.66 12.496 5.66 12.744V14.856C5.66 15.128 5.688 15.38 5.744 15.612C5.8 15.836 5.888 16.032 6.008 16.2C6.128 16.368 6.284 16.5 6.476 16.596C6.676 16.684 6.916 16.728 7.196 16.728ZM15.8157 12.048H17.3277V19.464C17.3277 19.736 17.2397 19.96 17.0637 20.136C16.8957 20.312 16.6757 20.4 16.4037 20.4H12.8637V18.96H15.4917C15.7077 18.96 15.8157 18.84 15.8157 18.6V17.136H15.5997C15.3357 17.824 14.7677 18.168 13.8957 18.168C13.5997 18.168 13.3237 18.12 13.0677 18.024C12.8117 17.928 12.5877 17.78 12.3957 17.58C12.2037 17.38 12.0517 17.132 11.9397 16.836C11.8357 16.532 11.7837 16.176 11.7837 15.768V12.048H13.2957V15.456C13.2957 15.88 13.3957 16.212 13.5957 16.452C13.7957 16.684 14.0957 16.8 14.4957 16.8C14.9517 16.8 15.2837 16.656 15.4917 16.368C15.7077 16.072 15.8157 15.672 15.8157 15.168V12.048ZM21.8913 16.728C22.1953 16.728 22.4433 16.684 22.6353 16.596C22.8353 16.5 22.9873 16.376 23.0913 16.224C23.2033 16.064 23.2793 15.884 23.3193 15.684C23.3593 15.476 23.3793 15.264 23.3793 15.048V14.832H24.9633V15.048C24.9633 16.048 24.6993 16.82 24.1713 17.364C23.6513 17.9 22.8913 18.168 21.8913 18.168C20.9313 18.168 20.1713 17.876 19.6113 17.292C19.0513 16.708 18.7713 15.856 18.7713 14.736V12.864C18.7713 12.328 18.8433 11.848 18.9873 11.424C19.1313 10.992 19.3393 10.632 19.6113 10.344C19.8833 10.048 20.2113 9.824 20.5953 9.672C20.9793 9.512 21.4113 9.432 21.8913 9.432C22.3873 9.432 22.8273 9.504 23.2113 9.648C23.5953 9.792 23.9153 10 24.1713 10.272C24.4353 10.544 24.6313 10.872 24.7593 11.256C24.8953 11.64 24.9633 12.072 24.9633 12.552V12.768H23.3793V12.552C23.3793 12.352 23.3553 12.152 23.3073 11.952C23.2593 11.752 23.1793 11.572 23.0673 11.412C22.9553 11.252 22.8033 11.124 22.6113 11.028C22.4193 10.924 22.1793 10.872 21.8913 10.872C21.6273 10.872 21.3993 10.924 21.2073 11.028C21.0153 11.124 20.8553 11.26 20.7273 11.436C20.5993 11.604 20.5033 11.804 20.4393 12.036C20.3833 12.26 20.3553 12.496 20.3553 12.744V14.856C20.3553 15.128 20.3833 15.38 20.4393 15.612C20.4953 15.836 20.5833 16.032 20.7033 16.2C20.8233 16.368 20.9793 16.5 21.1713 16.596C21.3713 16.684 21.6113 16.728 21.8913 16.728Z" fill="black"/>
</g>
<defs>
<clipPath id="clip0_188_43">
<rect width="32" height="32" fill="white"/>
</clipPath>
</defs>
</svg>
